<?xml version="1.0" encoding="utf-8"?>
<!-- Generator: Adobe Illustrator 20.1.0, SVG Export Plug-In . SVG Version: 6.00 Build 0)  -->
<svg version="1.1" id="Calque_1" xmlns="http://www.w3.org/2000/svg" xmlns:xlink="http://www.w3.org/1999/xlink" x="0px" y="0px"
	 viewBox="0 0 247.6 387.8" style="enable-background:new 0 0 247.6 387.8;" xml:space="preserve">
<style type="text/css">
	.st0{fill:#FDCC7A;}
	.st1{fill:#ED9559;}
	.st2{fill:#D87735;}
	.st3{fill:#EB593F;}
	.st4{fill:#E57B3C;}
	.st5{fill:#F9A360;}
	.st6{fill:#815C3E;}
	.st7{fill:#8D3A21;}
	.st8{fill:#8D4D2A;}
	.st9{fill:#211607;}
	.st10{fill:#847F7A;}
	.st11{fill:#1F0549;}
	.st12{opacity:0.21;fill:#3D1900;}
	.st13{opacity:0.24;}
	.st14{fill:#DD2A00;}
	.st15{opacity:0.24;fill:#DD2A00;}
	.st16{fill:#190C05;}
	.st17{opacity:0.2;fill:#DD2A00;}
	.st18{fill:#D74438;}
	.st19{fill:#F44545;}
	.st20{fill:#F4D038;}
	.st21{fill:#891818;}
	.st22{fill:#A51E1E;}
	.st23{fill:#FCE172;}
</style>
<g id="fat">
	<title>fat</title>
	<g id="face_eating">
		<g id="group_neck_fat">
			<path id="neck_fat" class="st0" d="M90.2,124.5l0.1,37h65.2V125c-9.1,6.3-19.6,10.3-30.5,11.8C109.7,138.8,97.4,127.7,90.2,124.5
				z"/>
			<path id="neck_shadow_fat" class="st1" d="M155.5,124.5c0,5.8,0,9.9,0,15.7c-19.1,15.2-46.1,15.3-65.2,0.1c0-4.8,0-11.1,0-15.8
				C111.1,133.2,134.6,133.2,155.5,124.5L155.5,124.5z"/>
		</g>
		<g id="face_fat">
			<path id="cheek_left_eating" class="st0" d="M96.9,135.7c2.1-0.2,4.3-0.6,6.3-1.4V90.2h-9.8c-4.8,0.1-9.4,1.9-13.1,5
				c-3.9,3.3-6.5,7.8-7.6,12.7c-1.6,7.8,0.8,15.9,6.2,21.7C85.7,136.5,94.5,135.9,96.9,135.7z"/>
			<path id="cheek_right_eating" class="st0" d="M148.5,135.7c-2.1-0.2-4.3-0.6-6.3-1.4V90.2h9.8c4.8,0.1,9.4,1.9,13.1,5
				c3.9,3.3,6.5,7.8,7.6,12.7c1.6,7.8-0.7,15.9-6.2,21.7C159.6,136.5,150.9,135.9,148.5,135.7z"/>
			<path class="st0" d="M124,145.6c-15.8,0.1-28.2-14.5-30.2-16.9c-6.8-8.1-10.9-18.1-11.9-28.6V42c0-22.3,18.1-40.4,40.4-40.5h1.1
				c22.4,0,40.5,18.1,40.5,40.5v58.1C159.8,127.1,141.5,145.4,124,145.6z"/>
		</g>
		<g id="Bouche">
			<path id="mouth_eating" class="st2" d="M118.9,111.2h6.9c2.6,0,2.8,2.1,2.8,3.6v0.6c0,1.4-0.9,4.6-4.8,4.6h-2.9
				c-3.8,0-4.8-3.1-4.8-4.6v-0.6C116.1,113.3,116.3,111.2,118.9,111.2z"/>
			<path id="mouth_hole_eating" class="st3" d="M122,115.5h1.2c1.1,0,2,0,2,0l0,0c0,0-0.9,0-2,0H122c-1.1,0.1-2,0.1-2,0.1l0,0
				C120,115.5,120.9,115.5,122,115.5z"/>
		</g>
		<g id="Nez">
			<path class="st4" d="M115.8,87.5h13c-0.4,4.8-3.6,8.3-7,8C118.8,95.2,116.2,91.9,115.8,87.5z"/>
		</g>
		<g id="Joues">
			<path class="st5" d="M95.8,79.5h8c2.2,0,4,1.8,4,4l0,0c0,2.2-1.8,4-4,4h-8c-2.2,0-4-1.8-4-4l0,0C91.8,81.3,93.6,79.5,95.8,79.5z"
				/>
			<path class="st5" d="M141.8,79.5h8c2.2,0,4,1.8,4,4l0,0c0,2.2-1.8,4-4,4h-8c-2.2,0-4-1.8-4-4l0,0
				C137.8,81.3,139.6,79.5,141.8,79.5z"/>
		</g>
		<g id="earsgroup_fat">
			<path id="ear_right_eating" class="st0" d="M161.2,94.2l-3.3-0.6l0,0l4.4-25.6l0,0l3.3,0.6c4.7,0.8,7.8,6.3,6.8,12.2l0,0
				l-0.7,4.2C170.6,90.9,166,95,161.2,94.2z"/>
			<path id="ear_right_hole_eating" class="st3" d="M164.5,84.6l-2.9-0.5l0,0l1-5.9l0,0l2.9,0.5c1.2,0.2,2,1.7,1.7,3.3l0,0
				C166.9,83.7,165.7,84.8,164.5,84.6z"/>
			<path id="ear_left_eating" class="st0" d="M77.9,68.7l4.1-0.3l0,0l2,25.9l0,0l-4.1,0.3c-6,0.5-8.2-4.2-8.7-10.2l-0.3-4.3
				C70.4,74.2,71.9,69.2,77.9,68.7z"/>
			<path id="ear_left_hole_eating" class="st3" d="M77.8,78.8l3-0.2l0,0l0.5,6l0,0l-3,0.2c-1.2,0.1-2.4-1.2-2.5-2.8l0,0
				C75.6,80.3,76.5,78.9,77.8,78.8z"/>
		</g>
		<g id="Yeux">
			<path id="eyebow_right_fat" class="st6" d="M138.8,57.5h9c2.8,0,5,2.2,5,5l0,0c0,2.8-2.2,5-5,5h-9c-2.8,0-5-2.2-5-5l0,0
				C133.8,59.8,136.1,57.5,138.8,57.5z"/>
			<path id="eyebow_left_fat" class="st6" d="M95.8,57.5h9c2.8,0,5,2.2,5,5l0,0c0,2.8-2.2,5-5,5h-9c-2.8,0-5-2.2-5-5l0,0
				C90.8,59.8,93.1,57.5,95.8,57.5z"/>
			<circle class="st7" cx="99.8" cy="72.5" r="3"/>
			<circle class="st7" cx="143.8" cy="72.5" r="3"/>
		</g>
		<g id="Cheveux">
			<path class="st8" d="M73.8,69.5V33.3c0,0-1.6-11,10.4-12c4.4-12.4,15.9-20.7,29-21c23-1,38.1-0.9,53,23c5,8,4.1,45,4.1,45
				c-3,0.4-6.1,0.4-9.1,0c0.3-2.5,2.1-20-10-31.2c-13.3-12.2-35.8-9.9-39.8-4c-0.9,1.2-1.3,2.7-1.2,4.2c0.6,3.3,5.3,4.7,5.9,4.9
				c-9.9,3.5-21-0.8-26-10c-1.7,3.6-3.1,7.4-4.1,11.2c-2.3,8.3-3,16.9-2.3,25.4C80.5,69.6,77.2,69.8,73.8,69.5L73.8,69.5z"/>
		</g>
	</g>
	<g id="body_fat">
		<g id="skin_fat">
			<path id="skin_body_fat" class="st0" d="M234.1,268.1c0-0.2,0-0.4,0-0.7l0,0c-0.2-38.5-10.7-113.2-111.1-113.2S12.2,229,12,267.4
				l0,0c0,0.2,0,0.4,0,0.7s0,0.4,0,0.7l0,0C12.2,307.2,22.6,382,123,382s110.8-74.8,111.1-113.2l0,0
				C234.1,268.5,234.1,268.3,234.1,268.1z"/>
			<path id="navel_fat" class="st5" d="M123.5,263.2c2.1,0,2.9,1.9,2.9,4.3s-1.3,4.3-2.9,4.3s-2.9-1.9-2.9-4.3
				S121.9,263.2,123.5,263.2z"/>
		</g>
		<g id="bottom_fat">
			<path id="jean_fat" class="st9" d="M235.5,267.4c0,38.1-9.6,114.6-111.8,114.6S12,305.5,12,267.4
				C85.4,285.7,235.5,267.4,235.5,267.4z"/>
		</g>
		<g id="shoes_fat">
			<g id="shoe_right_fat">
				<path id="shoe_top_right_fat" class="st10" d="M156.4,384.7c0-8.9-2.5-20.6-16.1-20.6s-16.1,11.8-16.1,20.6H156.4z"/>
				<path id="sole_right_fat" d="M124.6,383H156c0.7,0,1.2,0.5,1.2,1.2v2.4c0,0.7-0.5,1.2-1.2,1.2h-31.4c-0.7,0-1.2-0.5-1.2-1.2
					v-2.4C123.4,383.5,124,383,124.6,383z"/>
			</g>
			<g id="shoe_left_fat">
				<path id="shoe_top_left_fat" class="st10" d="M122.5,384.7c0-8.9-2.5-20.7-16.1-20.7s-16.1,11.8-16.1,20.7H122.5z"/>
				<path id="sole_left_fat" d="M90.7,383h31.5c0.7,0,1.2,0.5,1.2,1.2v2.4c0,0.7-0.5,1.2-1.2,1.2H90.7c-0.7,0-1.2-0.5-1.2-1.2v-2.4
					C89.5,383.5,90,383,90.7,383z"/>
			</g>
		</g>
		<g id="top_fat">
			<path id="shirt_fat" class="st11" d="M235.5,268.8c0-33.8-7.6-98.1-81.2-111.9c0,0-19.5,4.2-30.9,4.2S93,156.8,93,156.8
				c-73.9,13.7-81.1,78.1-81.1,112C84.8,247.2,162.5,247.2,235.5,268.8L235.5,268.8z"/>
			<path id="arm_left_fat" class="st11" d="M55.5,156.8h37.8l0,0v95.9l0,0H15.1c-8.3,0-15.1-6.8-15.1-15.1l0,0v-25.3
				C0,181.6,24.9,156.8,55.5,156.8z"/>
			<path id="arm_right_fat" class="st11" d="M232.5,252.8h-78.2l0,0v-95.9l0,0h37.8c30.7,0,55.5,24.9,55.5,55.5v25.3
				C247.6,246,240.8,252.8,232.5,252.8L232.5,252.8z"/>
		</g>
	</g>
</g>
<g id="exploded">
	<title>fat</title>
	<g id="body_exploded">
		<g id="skin_exploded">
			<path id="skin_body_exploded" class="st0" d="M122.8,154.3C22.4,154.3-10,229.8-11.8,269.6C-13.5,308,22.3,382,122.7,382
				s138.2-76.3,134.6-114.6C253.4,225.9,223.1,154.3,122.8,154.3z"/>
			<path id="navel_exploded" class="st5" d="M124.3,173.5c51.9,0,94,44,94,98.2s-9.1,98.2-94,98.2c-51.9,0-94-44-94-98.2
				S72.4,173.5,124.3,173.5z"/>
		</g>
		<g id="bottom_exploded">
			<path id="jean_exploded" class="st9" d="M236.1,518.8c0,38.1-9.6,114.6-111.8,114.6S12.6,556.9,12.6,518.8
				C127.1,699,236.1,518.8,236.1,518.8z"/>
		</g>
		<g id="shoes_exploded">
			<g id="shoe_right_exploded">
				<path id="shoe_top_right_exploded" class="st10" d="M192.3,549.2c-3.9-8-11.3-17.4-23.5-11.4s-9.2,17.7-5.3,25.6L192.3,549.2z"
					/>
				<path id="sole_right_exploded" d="M163.1,561.6l28.2-13.9c0.6-0.3,1.3,0,1.6,0.5l1.1,2.2c0.3,0.6,0,1.3-0.5,1.6l-28.2,13.9
					c-0.6,0.3-1.3,0-1.6-0.5l-1.1-2.2C162.3,562.6,162.5,561.9,163.1,561.6z"/>
			</g>
			<g id="shoe_left_exploded">
				<path id="shoe_top_left_exploded" class="st10" d="M86.1,563.2c3-8.4,4.6-20.3-8.2-24.9c-12.9-4.6-19.1,5.7-22.1,14.1
					L86.1,563.2z"/>
				<path id="sole_left_exploded" d="M56.8,550.9l29.7,10.6c0.6,0.2,0.9,0.9,0.7,1.5l-0.8,2.3c-0.2,0.6-0.9,0.9-1.5,0.7l-29.7-10.6
					c-0.6-0.2-0.9-0.9-0.7-1.5l0.8-2.3C55.5,551,56.1,550.7,56.8,550.9z"/>
			</g>
		</g>
		<g id="top_exploded">
			<path id="shirt_exploded" class="st11" d="M233.1-109.5c0-33.8-7.6-98.1-81.2-111.9c0,0-19.5,4.2-30.9,4.2s-30.5-4.3-30.5-4.3
				c-73.9,13.7-81.1,78.1-81.1,112C27.2-198.6,168-282.7,233.1-109.5L233.1-109.5z"/>
			<path id="arm_left_exploded" class="st11" d="M-112.5,126.6c7.3,10.4-40.4,95.9-40.4,95.9c-8.3,0-15.1-6.8-15.1-15.1l0,0v-25.3
				C-168,151.5-120.4,115.4-112.5,126.6z"/>
			<path id="arm_right_exploded" class="st11" d="M419.1,231c0,0-46.4-85-40.4-95.9c7.6-13.9,55.5,24.9,55.5,55.5v25.3
				C434.2,224.2,427.5,231,419.1,231L419.1,231z"/>
		</g>
	</g>
</g>
<g id="thin">
	<g id="face_thin">
		<g id="group_neck_thin">
			<path id="neck_thin" class="st0" d="M105,138.3V158h34v-20C128,141.5,116.2,141.6,105,138.3z"/>
			<path id="neck_shadow_thin" class="st12" d="M139,138.3c0,3.1,0,5.4,0,8.5c-11.1,3.3-22.9,3.3-34,0c0-2.6,0-6,0-8.5
				C115.9,143,128.2,143,139,138.3L139,138.3z"/>
		</g>
		<g id="Visage">
			<path id="face" class="st0" d="M121.5,2.8h1.1C144.9,2.8,163,21,163,43.3v58.1c0,22.4-18.1,40.5-40.5,40.5h-1.1
				c-22.4,0-40.5-18.1-40.5-40.5V43.3C81,21,99.2,2.8,121.5,2.8z"/>
			<path id="cheek_left_open" class="st0" d="M115.8,138.6c2.1-0.2,4.3-0.6,6.3-1.4V93.1h-9.8c-4.8,0.1-9.5,1.9-13.1,5
				c-3.9,3.3-6.5,7.8-7.6,12.7c-1.6,7.8,0.7,15.9,6.3,21.7C104.6,139.4,113.4,138.8,115.8,138.6z"/>
			<path id="cheek_right_open" class="st0" d="M127.4,138.6c-2.1-0.2-4.3-0.6-6.3-1.4V93.1h9.8c4.8,0.1,9.4,1.9,13.1,5
				c3.9,3.3,6.5,7.8,7.6,12.7c1.6,7.8-0.7,15.9-6.2,21.7C138.5,139.4,129.8,138.8,127.4,138.6z"/>
		</g>
		<g id="Bouche_1_">
			<path id="mouth_open" class="st2" d="M119.1,102.3h4.9c4.5,0,8.2,3.7,8.2,8.2v11.7c0,4.5-3.7,8.2-8.2,8.2h-4.9
				c-4.5,0-8.2-3.7-8.2-8.2v-11.7C110.8,105.9,114.5,102.3,119.1,102.3z"/>
			<path id="mouth_hole_open" class="st3" d="M120.3,109.1h2.5c2.3,0,4.2,1.9,4.2,4.2v6c0,2.3-1.9,4.2-4.2,4.2h-2.5
				c-2.3,0-4.2-1.9-4.2-4.2v-6C116,111,117.9,109.1,120.3,109.1z"/>
		</g>
		<g id="Nez_1_" class="st13">
			<path class="st14" d="M115,88.8h13c-0.4,4.8-3.6,8.3-7,8C118,96.5,115.4,93.2,115,88.8z"/>
		</g>
		<g id="Joues_1_">
			<path class="st15" d="M95,80.8h8c2.2,0,4,1.8,4,4l0,0c0,2.2-1.8,4-4,4h-8c-2.2,0-4-1.8-4-4l0,0C91,82.6,92.8,80.8,95,80.8z"/>
			<path class="st15" d="M141,80.8h8c2.2,0,4,1.8,4,4l0,0c0,2.2-1.8,4-4,4h-8c-2.2,0-4-1.8-4-4l0,0C137,82.6,138.8,80.8,141,80.8z"
				/>
		</g>
		<g id="earsgroup_thin">
			<path id="ear_right_open" class="st0" d="M165.2,94.8H161l0,0v-26l0,0h4.1c6,0,10.9,4.9,10.9,10.9l0,0V84
				C176,90,171.2,94.8,165.2,94.8z"/>
			<path id="ear_right_hole_open" class="st15" d="M167,84.8h-4l0,0v-6l0,0h4c1.7,0,3,1.3,3,3l0,0C170,83.5,168.7,84.8,167,84.8z"/>
			<path id="ear_left_open" class="st0" d="M76.9,68.8H81l0,0v26l0,0h-4.2C70.9,94.8,66,90,66,84v-4.3C66,73.7,70.9,68.8,76.9,68.8z
				"/>
			<path id="ear_left_hole_open" class="st15" d="M75,78.8h4l0,0v6l0,0h-4c-1.7,0-3-1.3-3-3l0,0C72,80.2,73.4,78.8,75,78.8z"/>
		</g>
		<g id="Yeux_1_">
			<path id="eyebow_right_thin" class="st6" d="M138,58.8h9c2.8,0,5,2.2,5,5l0,0c0,2.8-2.2,5-5,5h-9c-2.8,0-5-2.2-5-5l0,0
				C133,61.1,135.3,58.8,138,58.8z"/>
			<path id="eyebow_left_thin" class="st6" d="M95,58.8h9c2.8,0,5,2.2,5,5l0,0c0,2.8-2.2,5-5,5h-9c-2.8,0-5-2.2-5-5l0,0
				C90,61.1,92.3,58.8,95,58.8z"/>
			<circle class="st7" cx="99" cy="73.8" r="3"/>
			<circle class="st7" cx="143" cy="73.8" r="3"/>
		</g>
		<g id="hair">
			<path id="hair3" class="st16" d="M120.9,1c-2.2-0.4-5.3-0.8-9-0.9c0,0-4.4-0.6-8.1,0.6c-16.4,5.4-26,20.1-26,20.1
				C66.9,37.6,69.2,55.7,70.1,61c-0.4,1-0.8,2.1-1.5,3.2c-1,1.9-2.2,3.4-3.2,4.5c1.2,0.1,2.8,0.1,4.7-0.2c1.5-0.3,2.7-0.7,3.7-1
				c0,12,0,24.1,0,36.1c0.5,1.7,2,2.9,3.6,3.1c1.9,0.2,3.7-1.1,4.3-3.1c0-13.6,0-27.1,0-40.7c0,0,35.4-33.6,39.1-45.3
				c0,0,32.8,42.2,37,43.4v41.9c0.3,2.3,2.2,4.1,4.5,4.1c2.4,0.1,4.4-1.7,4.7-4.1c0-12,0-24.1,0-36.1c0,0,8.3,2.1,10.5,1.8l-5.6-7.9
				c0.9-6.5,2.4-23.2-7.3-39.2c-2.5-4.1-8.2-13.3-19.3-18c-7.8-3.4-15.7-3.3-17-3.3C125.3,0.3,122.8,0.6,120.9,1z"/>
			<path id="hair2" class="st16" d="M120.9,1c-2.2-0.4-5.3-0.8-9-0.9h0c-5.2,0-10.6,1.5-11.7,1.9c-4.3,1.4-13.5,7.6-22.4,18.9
				C66.9,37.6,69.2,55.7,70.1,61c-0.4,1-0.8,2.1-1.5,3.2c-1,1.9-2.2,3.4-3.2,4.5c1.2,0.1,2.8,0.1,4.7-0.2c1.5-0.3,2.7-0.7,3.7-1
				c0,12,0,6.1,0,18.1c0.5,1.7,2,2.9,3.6,3.1c1.9,0.2,3.7-1.1,4.3-3.1c0-13.6,0-28.7,0-28.7s16.6-6.3,27.3-12.4
				c11.2-6.4,21.7-11.1,30.9-14.6c0.1,3.5,0.8,8.8,3.5,14.7c4.3,9.3,11.2,14.4,14.4,16.5v21.9c0.3,2.3,2.2,4.1,4.5,4.1
				c2.4,0.1,4.4-1.7,4.7-4.1c0-12,0-4.1,0-16.1c0.9,0.7,2.3,1.5,4.2,2.1c2.4,0.7,4.5,0.6,5.7,0.5c-1-1.2-2.1-2.7-3.2-4.6
				c-0.8-1.5-1.4-2.8-1.8-4c0.9-6,2.5-22.9-7.3-39.2c-2.5-4.1-8.2-13.3-19.3-18c-7.8-3.4-15.7-3.3-17-3.3
				C125.3,0.3,122.8,0.6,120.9,1z"/>
			<path id="hair1" class="st8" d="M71.6,71.1V34.8c0,0-1.6-11,10.4-12c4.4-12.4,15.9-20.7,29-21c23-1,38.1-0.9,53,23
				c5,8,4.1,45,4.1,45c-3,0.4-6.1,0.4-9.1,0c0.3-2.5,2.1-20-10-31.2c-13.3-12.2-35.7-9.9-39.8-4c-0.9,1.2-1.3,2.7-1.2,4.2
				c0.6,3.3,5.3,4.7,5.9,4.9c-9.9,3.5-21-0.8-26-10c-1.7,3.6-3.1,7.4-4.1,11.2c-2.3,8.3-3,16.9-2.3,25.4
				C78.3,71.1,74.9,71.3,71.6,71.1L71.6,71.1z"/>
		</g>
	</g>
	<g id="body_thin">
		<g id="skin_thin">
			<path id="skin_body_thin" class="st0" d="M183.8,268.6c0-0.2,0-0.3,0-0.5l0,0c-0.1-38.3-5.8-113.7-61.8-113.7
				s-61.7,75.3-61.8,113.7l0,0c0,0.2,0,0.3,0,0.5s0,0.3,0,0.5l0,0c0.1,38.4,5.8,113.7,61.8,113.7s61.7-75.3,61.8-113.7l0,0
				C183.8,268.9,183.8,268.8,183.8,268.6z"/>
			<path id="navel_thin" class="st17" d="M121.8,264.1c2,0,2.9,1.9,2.9,4.3s-1.3,4.3-2.9,4.3s-2.9-1.9-2.9-4.3
				S120.2,264.1,121.8,264.1z"/>
		</g>
		<g id="bottom_thin">
			<path id="jean_thin" class="st9" d="M183.8,267.4c0,38.1-2.1,112.3-60.1,114.6c-59.4,2.3-63.5-69-63.5-114.6
				C101.9,285.7,183.8,267.4,183.8,267.4z"/>
		</g>
		<g id="shoes_thin">
			<g id="shoe_right_thin">
				<path id="shoe_top_right_thin" class="st10" d="M154.8,386c0-8.9-2.5-20.7-16.1-20.7s-16.1,11.8-16.1,20.7H154.8z"/>
				<path id="sole_right_thin" d="M123,384.3h31.5c0.7,0,1.2,0.5,1.2,1.2v2.4c0,0.7-0.5,1.2-1.2,1.2H123c-0.7,0-1.2-0.5-1.2-1.2
					v-2.4C121.8,384.8,122.4,384.3,123,384.3z"/>
			</g>
			<g id="shoe_left_thin">
				<path id="shoe_top_left_thin" class="st10" d="M120.9,386c0-8.9-2.5-20.6-16.1-20.6s-16,11.7-16,20.6H120.9z"/>
				<path id="sole_left_thin" d="M89.2,384.3h31.4c0.7,0,1.2,0.5,1.2,1.2v2.4c0,0.7-0.5,1.2-1.2,1.2H89.2c-0.7,0-1.2-0.5-1.2-1.2
					v-2.4C88,384.9,88.5,384.3,89.2,384.3z"/>
			</g>
		</g>
		<g id="top_thin">
			<path id="shirt_thin" class="st11" d="M183.8,269.1c0-33.9-4.2-98.1-44.8-111.9c0,0-10.8,4.2-17,4.2c-6.3,0-16.9-4.3-16.9-4.3
				c-40.8,13.7-44.8,78.1-44.8,112C100.8,279.3,143.2,279.3,183.8,269.1L183.8,269.1z"/>
			<path id="arm_left_thin" class="st11" d="M94.2,157.1h10.9l0,0V253l0,0H63.8c-6.3,0-11.4-5.1-11.4-11.3l0,0v-42.8
				C52.5,175.7,71.1,157.1,94.2,157.1L94.2,157.1z"/>
			<path id="arm_right_thin" class="st11" d="M180.4,253h-41.3l0,0v-95.9l0,0H150c23,0,41.7,18.7,41.7,41.7v42.8
				C191.7,247.9,186.7,253,180.4,253L180.4,253L180.4,253z"/>
		</g>
	</g>
</g>
<g id="boom">
	<path class="st18" d="M-16,242.8c0.1-1.2,0.5-7.3-1.2-15.2c-3.2-14.7-11-24.6-15.6-29.6c1.2,0.5,22.1,10,35.3-0.4
		c4.1-3.2,6.4-7.5,7.4-9.4c5.5-10.6,3.9-21,3.1-25.1c11.7,12.3,29,15.9,42.5,9.5c13.6-6.5,17.6-20.5,18.3-22.9
		c6.3,10.2,17.6,16.2,29.4,15.5c13-0.8,24.4-9.8,28.5-22.6c-0.6,10.3,5.7,19.4,14.2,21.8c10.5,3,23.4-4.6,25.8-17.8
		c2.2,13.5,13.7,22.5,24.8,21.5c8-0.7,15.1-6.6,18.5-14.8c-0.2,2-1.9,17.4,9.8,29.6c12.5,12.9,29.3,10.8,31,10.6
		c-12.1,4.8-17.8,18.7-12.9,30.1c4.6,10.7,17.2,16.4,28.8,12.3c-11.6,5.5-19.3,16.9-20.1,29.6c-1.3,19.9,14.9,31.2,15.6,31.6
		c-11.6-7.4-27-5.4-36.1,4.5c-9.5,10.3-9.9,26.4-0.8,37.4c-9.3-9.3-23.3-12-34.7-6.8c-15,6.9-17.3,23.5-17.5,24.5
		c-7.6-13.8-22.8-21.6-38.2-19.7c-14.5,1.8-26.8,11.9-31.6,25.9c-0.3-1.6-3.8-18-18.1-24.2c-14-6-32.5,0.1-42.3,16
		c4.1-12.9-0.3-26-9-31.2c-11.3-6.8-30.8-0.9-37.8,16.8c9.6-17.6,7.4-38.1-4.5-50.5c-11.2-11.6-26.8-11.6-30-11.5
		C-28.7,273.4-17.3,260.9-16,242.8z"/>
	<path class="st19" d="M-1.6,244.6c0.2-5.7-0.7-10.2-1.1-12.5c-1.7-8.8-5-15.6-7.5-19.9c3.6,0.2,12.9,0.2,21.1-6
		c3.3-2.5,5.5-5.4,6.8-7.2c4.3-5.8,6.2-11.4,7.2-15.1c2.5,1.2,19.2,8.6,36.2,0.4c9.3-4.5,14.5-11.5,16.7-15.1
		c4.1,2.3,15.3,8,30.2,6.4c10.9-1.2,18.8-5.7,22.7-8.4c1.8,2.1,6.8,7.1,14.7,8.8c13.9,2.9,24.5-7,25.5-8c1.6,2.6,4.4,6.1,8.8,8.8
		c12.3,7.6,26.4,2,28.3,1.2c1.6,3.4,4.4,8.3,9.2,13.1c6.4,6.4,13.2,9.4,17.1,10.7c-0.6,1-8.1,12.9-2.4,26.3
		c5.1,12,16.8,15.5,18.3,15.9c-0.9,0.5-11.6,6.6-12.8,19.2c-1.1,11.6,6.7,19.2,7.6,20.1c-1.9-0.1-17-0.9-26,9.6
		c-4.5,5.3-6.1,11.8-6.5,13.5c-1,4.5-0.9,8.4-0.6,11c-1.4-0.6-12.9-5.5-24.7,0.6c-10.2,5.3-13.4,15-13.9,16.9
		c-3.2-2.8-8.6-6.8-16.1-9.7c-3.4-1.3-10.9-4.1-19.7-3.3c-16,1.5-26,13.9-28.3,17c-1.4-2.8-6-11.3-16.1-15.6
		c-16.9-7.3-32.9,4.3-33.6,4.9c-0.7-2.6-3.5-11.4-12.2-17.4c-12.1-8.3-25.5-4.3-27.2-3.7c-0.4-3.7-1.9-14.5-10.6-24
		C2.1,275-6.5,272.1-10.2,271C-6.5,265.3-2,256.1-1.6,244.6z"/>
	<path class="st20" d="M-28.3,233.5c2.5-10.9,16-19.2,32-19.3c0.3-1.5,3.2-13.7,18.8-19.9c12.4-5,28-4.4,40.3,1.6
		c2.2-1.7,21.6-16,50.4-13.6c22.8,1.9,36.1,13,39,15.5c22.1-14.3,53.3-15.5,73.1-4.4c21.4,12,19.9,32.7,19.7,34.5
		c15.6,2.6,26.2,12.9,25.4,24.1c-0.8,10.3-11.4,19.3-25.8,21.5c0,3.5-0.4,16.2-13.1,25.3c-15.7,11.3-43.7,12.8-67.4,2.2
		c-13.5,17.1-39.9,25.9-64.4,22.2c-29.4-4.5-41.1-24.9-42-26.6c-20.3,10.3-46.9,8.1-61.3-3.5c-11.2-9-13.7-22.7-6.6-34.8
		C-23.4,253.5-30.6,243.4-28.3,233.5z"/>
	<g id="boom_x5F_letters">
		<path class="st21" d="M71.7,261.9c0,5-2.8,8.8-8.5,11.5c-4.6,2.2-10.2,3.3-16.7,3.3c-7.1,0-12.1-0.4-14.9-1.3
			c-3.6-1.1-6-3.5-7.3-7c-1.3-3.5-2-9.3-2-17.4c0-8.3,0.8-14.3,2.4-18.1c1.5-3.5,3.9-5.8,7.3-6.9c2.3-0.7,6.3-1.1,12.2-1.1
			c18.2,0,27.4,4.8,27.4,14.3c0,3.9-2.1,7.8-6.3,11.7c2.7,2.2,4.2,3.6,4.6,4.1C71.1,256.6,71.7,258.9,71.7,261.9z M51.1,240.5
			c0-0.9-0.3-1.7-1-2.3c-0.8-0.7-1.8-1.1-3.2-1.1c-2.8,0-4.2,1.1-4.2,3.3c0,2.2,1.4,3.3,4.2,3.3C49.7,243.8,51.1,242.7,51.1,240.5z
			 M51.1,261.3c0-0.8-0.3-1.6-1-2.2c-0.8-0.7-1.8-1.1-3.2-1.1c-2.8,0-4.2,1.1-4.2,3.3c0,2.2,1.4,3.3,4.2,3.3
			C49.7,264.6,51.1,263.5,51.1,261.3z"/>
		<path class="st21" d="M117.4,256.2c-0.6,7.4-3.5,13.4-8.9,18.2c-5.2,4.6-11.1,6.6-17.7,6.2c-6.6-0.5-12.2-3.4-16.6-8.7
			c-4.6-5.4-6.6-11.8-6-19.2c0.6-7.6,3.5-13.8,8.8-18.7c5.1-4.7,11-6.8,17.7-6.3c6.7,0.5,12.3,3.4,16.7,8.9
			C116,242.1,118,248.7,117.4,256.2z M97.1,254.4c0.5-6.3-0.8-9.6-3.8-9.9c-3-0.2-4.8,2.9-5.2,9.5c-0.4,6.3,0.9,9.5,3.9,9.7
			C94.9,264,96.6,260.9,97.1,254.4z"/>
		<path class="st21" d="M163,253.5c0.2,7.4-2.1,13.7-6.9,19c-4.6,5.1-10.3,7.8-16.9,8c-6.6,0.2-12.5-2-17.5-6.8
			c-5.1-4.9-7.8-11.1-8.1-18.5c-0.3-7.6,2-14.1,6.7-19.5c4.6-5.2,10.2-7.9,16.9-8.2c6.7-0.2,12.6,2.1,17.6,7
			C160.1,239.7,162.8,246,163,253.5z M142.6,254c-0.2-6.4-1.8-9.5-4.8-9.4c-3,0.1-4.4,3.4-4.1,10c0.3,6.3,1.9,9.3,5,9.2
			C141.5,263.7,142.9,260.4,142.6,254z"/>
		<path class="st21" d="M215.8,247.6c0,1.5-0.1,3-0.2,4.6c-0.5,6.8-1.7,12.4-3.5,16.8c-2.3,5.5-5.3,8.2-9.1,8.2
			c-2.5,0-4.8-1.2-6.8-3.7c-1.7-2-2.7-4.2-3.2-6.4c-0.4,1.5-1,2.7-2,3.8c-1,1.1-2,1.6-3.1,1.6c-1.1,0-2.3-0.5-3.4-1.6
			c-1.1-1.1-1.9-2.3-2.2-3.7c-0.5,2.3-1.6,4.4-3.2,6.4c-2,2.5-4.3,3.7-6.8,3.7c-3.8,0-6.9-2.7-9.1-8.2c-1.8-4.4-3-10-3.5-16.8
			c-0.1-1.7-0.2-3.3-0.2-4.6c0-6.5,1-11.8,3-16.1c2.1-4.6,5-6.9,8.6-6.9c2.8,0,5.5,1.1,8,3.4c1.5,1.3,3.2,3.4,5.2,6.3
			c1.6,2.3,2.6,3.4,3.2,3.4c0.5,0,1.5-1.1,3.2-3.4c2.1-2.9,3.9-5,5.4-6.3c2.6-2.3,5.3-3.4,8.1-3.4c3.6,0,6.5,2.3,8.6,6.9
			C214.9,235.8,215.8,241.1,215.8,247.6z"/>
		<path class="st22" d="M176.9,231.2c-0.9-1.8-3.8-2.5-6-2c-5,1.2-6.3,8.8-6.8,11.1c-0.3,1.9-0.7,4,0.4,4.8c1.2,0.9,3.7,0,4.8-1.6
			c1-1.6-0.2-2.7,0.8-5.2c0.2-0.5,1.2-3,3.2-3.6c1.5-0.4,2.3,0.6,3.2,0C177.3,234.2,177.5,232.4,176.9,231.2z"/>
		<path class="st22" d="M43.1,230.4c-1.1-1.9-7.8-1.6-11.9,2c-2.6,2.3-4.1,6-3.6,9.2c0.1,0.4,0.5,3.3,2,3.6c1.1,0.3,2.3-1.1,2.4-1.2
			c1.4-1.6,0.4-3.1,1.2-5.6c0.7-2,2.4-3.9,4.4-4.8c2.6-1.2,4.9-0.2,5.6-1.6C43.4,231.5,43.4,230.9,43.1,230.4z"/>
		<path class="st22" d="M96.5,233.6c-1.4-2.7-8.1-2.4-12.7-0.4c-1,0.4-5.9,2.7-7.6,7.6c-0.3,0.7-1.1,3.4,0,4.4
			c1.1,1,3.7,0.2,5.2-1.2c1.6-1.5,0.9-2.7,2.4-4.4c2.1-2.4,5.6-2.6,6.3-2.7c3.1-0.1,4.5,1.3,5.8,0.4
			C96.7,236.5,97.1,234.8,96.5,233.6z"/>
		<path class="st23" d="M50.9,203.7c-2-4.6-13.1-5.1-21.1-2.3c-1.7,0.6-10.2,3.7-13.5,11.6c-0.5,1.2-2.3,5.4-0.6,7.3
			c1.7,1.8,6,0.8,8.7-1.3c2.8-2.3,1.8-4.3,4.5-7c3.8-3.7,9.6-3.6,10.7-3.6c5.2,0.2,7.3,2.8,9.5,1.4C51,208.7,51.8,205.7,50.9,203.7z
			"/>
		<path class="st22" d="M143.8,233.6c-1.4-2.7-8.1-2.4-12.7-0.4c-1,0.4-5.9,2.7-7.6,7.6c-0.3,0.7-1.1,3.4,0,4.4
			c1.1,1,3.7,0.2,5.2-1.2c1.6-1.5,0.9-2.7,2.4-4.4c2.1-2.4,5.6-2.6,6.3-2.7c3.1-0.1,4.5,1.3,5.8,0.4
			C144.1,236.5,144.4,234.8,143.8,233.6z"/>
	</g>
</g>
</svg>
